<svg id="Capa_1" enable-background="new 0 0 511.996 511.996" height="512" viewBox="0 0 511.996 511.996" width="512" xmlns="http://www.w3.org/2000/svg"><g><path d="m205.462 242.892-140.529 204.169c4.131 4.131 10.068 5.335 15.278 3.651l109.077-35.642c16.126-5.269 33.845-1.021 45.829 10.987z" fill="#8ae7ff"/><path d="m85.937 276.877c12.008 11.984 16.256 29.703 10.987 45.829l-35.642 109.077c-1.684 5.209-.48 11.147 3.651 15.278l172.349-172.349z" fill="#bdf2ff"/><path d="m161.84 310.956c24.693-10.228 49.425 14.504 39.197 39.197l-4.567 11.026 38.646 64.877 222.739-307.591-64.326-64.326-307.592 222.738 64.877 38.646z" fill="#47d4ff"/><path d="m354.531 483.833c.007.006 149.233-456.675 149.233-456.675 1.684-5.209.48-11.147-3.651-15.278l-216.517 462.617 21.213 21.213c11.716 11.716 30.711 11.716 42.426 0 3.452-3.451 5.878-7.535 7.296-11.877z" fill="#bdf2ff"/><path d="m326.023 474.497c3.451-3.451 5.983-7.429 7.588-11.583.007.006 168.939-436.968 168.939-436.968 1.91-4.984 1.164-10.463-2.438-14.064-4.131-4.131-10.068-5.335-15.266-3.639-.011-.013-456.692 149.213-456.692 149.213-4.335 1.425-8.42 3.851-11.87 7.302-11.716 11.716-11.716 30.711 0 42.426l101.836 101.837c11.338 11.338 29.491 11.702 41.269 1.097l214.037-192.706c5.889-5.299 14.953-5.132 20.621.535 5.668 5.668 5.835 14.732.535 20.621l-192.706 214.037c-10.605 11.778-10.24 29.931 1.097 41.269l80.623 80.623c11.716 11.716 30.711 11.716 42.427 0z" fill="#e5faff"/><path d="m505.402 6.592c-6.016-6.015-14.79-8.11-22.895-5.465-.484.157-.93.302-1.312.427l-455.397 148.792c-5.641 1.854-10.631 4.923-14.833 9.124-14.62 14.621-14.62 38.411 0 53.033l69.679 69.679c10.044 10.063 13.552 24.696 9.136 38.211l-35.648 109.097c-2.624 8.113-.522 16.884 5.482 22.89 4.294 4.293 10 6.591 15.878 6.591 2.343 0 4.714-.365 7.032-1.115l109.077-35.643c13.515-4.415 28.149-.908 38.191 9.156.019-.019 69.698 69.659 69.698 69.659 7.312 7.311 16.914 10.966 26.518 10.966 9.603 0 19.205-3.655 26.517-10.966 4.208-4.209 7.276-9.205 9.121-14.852.152-.466.297-.906.428-1.307l148.812-455.39c2.622-8.112.52-16.882-5.484-22.887zm-401.364 318.459c1.814-5.552 2.666-11.238 2.618-16.857l6.146 6.146c11.177 11.178 27.717 13.869 41.476 7.877l10.418-4.316c6.905-2.86 13.302-1.975 18.316.474l-114.064 114.064zm82.906 82.904-107.388 35.091 114.064-114.064c2.449 5.015 3.334 11.412.474 18.316l-4.322 10.434c-5.983 13.756-3.289 30.287 7.883 41.46l6.146 6.145c-5.621-.047-11.306.804-16.857 2.618zm309.676-383.11c-1.481 4.533-147.94 452.746-149.217 456.627-.006.017-.011.032-.017.049-1.104 3.382-2.944 6.377-5.469 8.9-8.771 8.772-23.047 8.774-31.819 0l-101.836-101.835c-8.466-8.467-8.829-22.061-.826-30.948l192.707-214.038c8.003-8.894 7.648-22.484-.807-30.941-8.458-8.456-22.048-8.81-30.943-.806l-96.157 86.574c-3.078 2.771-3.327 7.515-.556 10.593 2.772 3.077 7.514 3.326 10.593.556l96.155-86.573c2.964-2.666 7.488-2.55 10.301.263 2.813 2.814 2.93 7.339.266 10.3l-178.682 198.46c-1.312-7.316-4.851-14.216-10.489-19.854-5.637-5.637-12.537-9.177-19.854-10.489l80.294-72.291c3.078-2.772 3.327-7.514.556-10.593-2.772-3.079-7.516-3.327-10.593-.556l-95.871 86.317c-8.886 8.002-22.479 7.641-30.946-.828l-101.837-101.835c-8.772-8.773-8.772-23.048-.001-31.82 2.523-2.523 5.521-4.367 8.897-5.477 4.527-1.479 451.942-147.677 456.623-149.191.022-.007.044-.014.065-.021 2.712-.884 5.637-.188 7.637 1.812 2.003 2.001 2.7 4.941 1.826 7.645z"/></g></svg>